<svg version="1.0" xmlns="http://www.w3.org/2000/svg" width="800.000000" height="800.000000" viewBox="0 0 800.000000 800.000000" preserveAspectRatio="xMidYMid meet">
  <metadata>
    <rdf:RDF xmlns:rdf="http://www.w3.org/1999/02/22-rdf-syntax-ns#" xmlns:rdfs="http://www.w3.org/2000/01/rdf-schema#" xmlns:dc="http://purl.org/dc/elements/1.1/">
      <rdf:Description dc:format="image/svg+xml" dc:Label="1" dc:ContentProducer="001191330110MACRLGPT8B00000" dc:ProduceID="350714691" dc:ReservedCode1="sgIumXf+Mj31qV5YIG6ZRDQiB4V0wKVsLgVZvHTpaDQ=" dc:ContentPropagator="001191330110MACRLGPT8B00000" dc:PropagateID="350714691" dc:ReservedCode2="sgIumXf+Mj31qV5YIG6ZRDQiB4V0wKVsLgVZvHTpaDQ="/>
    </rdf:RDF>
  </metadata>
  <g transform="translate(0.000000,800.000000) scale(0.100000,-0.100000)" fill="#000000" stroke="none">
    <path d="M3920 6224 c-410 -247 -958 -419 -1453 -454 -239 -18 -284 -25 -321 -54 -71 -54 -68 -12 -63 -844 l4 -747 26 -120 c14 -66 35 -157 46 -202 83 -322 286 -714 531 -1023 107 -136 415 -443 555 -554 200 -158 511 -363 699 -462 l56 -29 55 29 c154 80 422 251 580 370 224 168 526 457 675 646 270 341 482 770 559 1133 46 216 51 310 51 1035 0 755 3 716 -65 767 -38 30 -74 36 -315 54 -274 22 -564 82 -845 176 -223 74 -372 141 -581 261 -62 35 -113 64 -115 63 -2 0 -38 -20 -79 -45z m181 -256 c274 -151 614 -272 974 -347 164 -34 436 -71 519 -71 30 0 68 -3 85 -6 l32 -7 -4 -681 c-4 -646 -5 -687 -26 -796 -30 -159 -55 -253 -103 -383 -231 -631 -717 -1180 -1427 -1611 -85 -52 -150 -85 -158 -81 -30 11 -209 119 -313 188 -762 508 -1243 1183 -1366 1922 -15 85 -18 203 -21 771 l-4 671 32 7 c17 3 55 6 83 6 113 0 383 39 596 86 309 68 672 202 900 333 47 27 90 50 96 50 6 1 54 -22 105 -51z"/>
    <path d="M3752 5075 c-148 -141 -241 -311 -228 -414 12 -88 72 -144 156 -145 58 -1 114 33 140 85 19 36 20 56 18 296 l-3 258 -83 -80z"/>
    <path d="M4160 4897 c0 -242 1 -255 23 -297 44 -88 156 -113 229 -52 35 30 67 94 68 135 0 69 -62 201 -144 302 -44 55 -156 164 -168 165 -5 0 -8 -114 -8 -253z"/>
    <path d="M3202 4568 c-99 -153 -143 -348 -99 -434 50 -98 172 -123 252 -53 79 69 74 153 -18 339 -36 74 -69 152 -72 173 -4 20 -11 37 -15 37 -4 0 -26 -28 -48 -62z"/>
    <path d="M4735 4579 c-10 -30 -45 -107 -78 -172 -65 -127 -80 -193 -58 -260 15 -46 70 -94 116 -103 130 -24 222 89 196 240 -20 113 -76 245 -139 325 l-19 24 -18 -54z"/>
    <path d="M3912 4251 c-48 -17 -85 -42 -119 -81 -17 -20 -63 -106 -63 -119 0 -6 -9 -35 -20 -65 -31 -83 -88 -140 -191 -191 -109 -55 -151 -91 -185 -160 -23 -48 -26 -64 -22 -132 4 -92 25 -140 84 -199 62 -62 137 -87 244 -81 72 4 97 11 165 43 79 38 82 39 195 39 113 0 116 -1 200 -40 81 -38 89 -40 185 -40 92 0 104 2 154 30 59 32 111 90 137 151 27 62 23 161 -10 228 -33 68 -75 105 -176 156 -133 67 -174 114 -215 245 -37 119 -102 191 -201 221 -62 18 -97 17 -162 -5z"/>
  </g>
</svg>