<svg version="1.0" xmlns="http://www.w3.org/2000/svg" width="800.000000" height="800.000000" viewBox="0 0 800.000000 800.000000" preserveAspectRatio="xMidYMid meet">
  <metadata>
    <rdf:RDF xmlns:rdf="http://www.w3.org/1999/02/22-rdf-syntax-ns#" xmlns:rdfs="http://www.w3.org/2000/01/rdf-schema#" xmlns:dc="http://purl.org/dc/elements/1.1/">
      <rdf:Description dc:format="image/svg+xml" dc:Label="1" dc:ContentProducer="001191330110MACRLGPT8B00000" dc:ProduceID="350714677" dc:ReservedCode1="ZQcm2KCCrj0FEGnpFDLKTsmwg0Eig+AJZYTkhveqRNA=" dc:ContentPropagator="001191330110MACRLGPT8B00000" dc:PropagateID="350714677" dc:ReservedCode2="ZQcm2KCCrj0FEGnpFDLKTsmwg0Eig+AJZYTkhveqRNA="/>
    </rdf:RDF>
  </metadata>
  <g transform="translate(0.000000,800.000000) scale(0.100000,-0.100000)" fill="#000000" stroke="none">
    <path d="M3561 5815 c-176 -40 -328 -158 -402 -312 -30 -62 -30 -63 -72 -63 -23 0 -73 -7 -112 -15 -215 -45 -387 -211 -441 -425 -16 -64 -16 -242 0 -281 5 -12 -10 -25 -61 -55 -81 -47 -195 -158 -241 -236 -65 -110 -85 -187 -88 -338 -2 -74 -6 -164 -9 -200 -23 -231 149 -512 369 -604 l38 -16 -7 -72 c-16 -179 47 -351 176 -478 94 -91 258 -160 384 -160 31 0 37 -5 59 -48 34 -67 107 -161 154 -199 188 -151 418 -181 632 -82 l67 31 49 -25 c222 -112 489 -71 665 103 63 62 139 175 139 206 0 10 12 14 43 14 68 0 177 27 247 62 82 40 203 159 247 243 56 107 81 263 61 375 l-7 35 72 34 c55 26 91 54 152 115 131 132 187 266 184 436 -1 52 -1 147 0 210 2 138 -19 236 -76 342 -49 92 -158 202 -246 252 -60 33 -68 41 -62 59 4 12 9 68 12 124 5 86 2 112 -16 173 -31 102 -75 174 -152 251 -101 102 -255 167 -399 169 l-45 1 -34 71 c-71 149 -225 267 -396 303 -128 27 -244 11 -372 -49 l-73 -35 -42 25 c-106 61 -277 86 -397 59z m264 -230 c31 -15 85 -54 119 -86 l62 -58 43 44 c176 182 398 180 564 -4 44 -50 89 -143 102 -214 l7 -37 109 0 c177 0 266 -29 351 -114 63 -63 91 -125 96 -215 5 -83 -6 -131 -43 -185 l-25 -37 44 -57 c57 -75 68 -84 153 -127 87 -44 174 -133 211 -215 34 -74 42 -192 17 -244 -16 -34 -16 -40 -2 -74 25 -59 29 -96 17 -163 -15 -83 -61 -171 -118 -228 -44 -43 -117 -91 -125 -81 -2 3 -36 147 -75 320 -71 312 -72 315 -57 364 44 144 -12 334 -131 446 -81 77 -216 130 -329 130 -50 0 -53 2 -141 81 -99 89 -195 143 -287 160 -36 6 -198 9 -425 7 -347 -3 -370 -4 -424 -24 -70 -27 -127 -66 -226 -155 -72 -64 -80 -69 -124 -69 -171 -1 -332 -94 -416 -241 -57 -101 -77 -245 -47 -344 14 -47 13 -55 -30 -239 -24 -105 -56 -248 -72 -318 -15 -71 -32 -128 -38 -128 -5 0 -31 13 -56 29 -85 54 -158 165 -180 277 -11 52 -10 71 5 131 12 52 14 77 6 97 -5 15 -10 58 -10 95 0 160 96 306 255 387 79 40 91 50 147 117 l41 48 -27 53 c-70 139 -45 298 67 410 79 78 183 110 344 105 l103 -4 21 70 c40 132 94 210 187 269 100 63 235 72 337 21z m595 -824 c25 -13 95 -64 155 -114 61 -50 116 -95 124 -101 8 -6 55 -11 105 -11 83 0 96 -3 146 -31 67 -38 114 -102 130 -180 11 -50 9 -64 -10 -125 l-23 -69 41 -183 c23 -100 71 -312 107 -472 36 -159 65 -311 65 -336 0 -113 -69 -243 -164 -306 -71 -48 -115 -58 -253 -57 l-121 1 -17 -61 c-37 -136 -143 -265 -253 -307 -70 -27 -186 -29 -250 -6 -49 19 -115 63 -167 111 l-36 35 -38 -38 c-130 -130 -277 -162 -428 -92 -114 54 -192 153 -239 304 l-18 58 -97 -7 c-110 -8 -177 4 -252 44 -121 65 -197 210 -184 351 3 31 26 146 52 256 26 110 62 270 81 355 19 85 44 199 56 253 21 94 21 99 5 151 -45 143 6 271 130 329 39 18 65 22 135 21 l88 -1 117 99 c112 95 167 131 223 149 14 4 187 7 385 6 359 -2 360 -2 405 -26z"/>
    <path d="M3384 4213 c-38 -7 -75 -56 -76 -100 -1 -94 86 -142 163 -90 98 66 31 212 -87 190z"/>
    <path d="M4563 4213 c-30 -6 -83 -68 -83 -99 0 -122 177 -154 209 -37 21 77 -47 151 -126 136z"/>
    <path d="M3737 3623 c-4 -3 -7 -54 -7 -112 l0 -106 136 -168 136 -167 134 168 134 167 -2 110 -3 110 -261 3 c-143 1 -263 -1 -267 -5z"/>
    <path d="M3605 2884 c-10 -67 2 -120 32 -144 25 -19 41 -20 365 -20 l340 0 29 29 c27 27 29 35 29 105 l0 76 -394 0 -394 0 -7 -46z"/>
  </g>
</svg>