<svg version="1.0" xmlns="http://www.w3.org/2000/svg" width="800.000000" height="800.000000" viewBox="0 0 800.000000 800.000000" preserveAspectRatio="xMidYMid meet">
  <metadata>
    <rdf:RDF xmlns:rdf="http://www.w3.org/1999/02/22-rdf-syntax-ns#" xmlns:rdfs="http://www.w3.org/2000/01/rdf-schema#" xmlns:dc="http://purl.org/dc/elements/1.1/">
      <rdf:Description dc:format="image/svg+xml" dc:Label="1" dc:ContentProducer="001191330110MACRLGPT8B00000" dc:ProduceID="350712015" dc:ReservedCode1="jMudJB1f88WDPI3VTA40uFh0UX8F8nRNwf3kxT/pcjA=" dc:ContentPropagator="001191330110MACRLGPT8B00000" dc:PropagateID="350712015" dc:ReservedCode2="jMudJB1f88WDPI3VTA40uFh0UX8F8nRNwf3kxT/pcjA="/>
    </rdf:RDF>
  </metadata>
  <g transform="translate(0.000000,800.000000) scale(0.100000,-0.100000)" fill="#000000" stroke="none">
    <path d="M3830 5914 c-251 -32 -484 -118 -690 -256 -105 -70 -261 -214 -351 -324 l-59 -72 -42 10 c-24 5 -83 8 -131 5 -74 -4 -98 -10 -153 -38 -78 -39 -136 -102 -165 -179 -17 -45 -20 -71 -17 -142 6 -138 53 -209 201 -303 14 -9 13 -19 -4 -100 -42 -203 -81 -606 -110 -1137 l-12 -228 -109 0 -108 0 0 -110 0 -110 1920 0 1920 0 0 110 0 110 -104 0 -104 0 -6 63 c-3 34 -8 103 -11 152 -35 596 -76 1010 -119 1196 l-14 58 33 11 c55 18 122 85 157 158 29 59 33 77 33 147 0 71 -4 88 -33 147 -38 77 -92 130 -171 167 -51 24 -68 26 -189 27 l-133 2 -56 68 c-232 283 -552 476 -913 549 -73 15 -388 28 -460 19z m435 -234 c330 -69 616 -254 828 -536 66 -88 167 -270 206 -374 95 -248 143 -638 194 -1577 l2 -43 -1494 0 -1494 0 7 123 c29 514 67 943 102 1152 62 372 197 640 448 890 107 106 151 142 236 192 173 103 362 169 548 192 105 13 308 4 417 -19z m-1711 -732 c-29 -68 -57 -124 -63 -126 -5 -2 -21 13 -36 32 -70 92 -4 216 116 216 l37 0 -54 -122z m2939 108 c71 -29 107 -109 76 -169 -14 -26 -50 -67 -59 -67 -4 0 -15 21 -25 48 -10 26 -34 79 -54 117 -20 39 -37 73 -39 78 -6 12 67 8 101 -7z"/>
    <path d="M3205 4596 c-87 -40 -122 -152 -72 -227 38 -57 84 -81 143 -77 149 12 208 193 91 282 -43 33 -118 43 -162 22z"/>
    <path d="M4660 4587 c-107 -56 -109 -212 -3 -274 86 -50 192 -13 228 82 31 80 6 149 -71 192 -50 29 -100 29 -154 0z"/>
    <path d="M3791 4192 c-91 -46 -127 -161 -81 -257 25 -52 64 -85 133 -112 l48 -19 1 -115 0 -114 -81 -3 -81 -3 0 -104 0 -105 270 0 270 0 0 105 0 105 -80 0 -80 0 0 118 0 118 47 14 c97 28 176 145 158 234 -12 53 -51 110 -93 134 -37 20 -52 22 -218 22 -151 0 -184 -3 -213 -18z"/>
    <path d="M2400 2345 l0 -215 115 0 c122 0 165 10 198 47 40 45 37 116 -6 152 -15 12 -14 16 8 45 29 38 31 65 9 112 -29 61 -65 74 -203 74 l-121 0 0 -215z m208 78 c3 -21 -1 -23 -42 -23 -43 0 -46 2 -46 26 0 23 3 25 43 22 35 -2 43 -7 45 -25z m6 -149 c10 -26 -2 -34 -50 -34 -40 0 -44 2 -44 25 0 23 4 25 44 25 31 0 46 -5 50 -16z"/>
    <path d="M3420 2345 l0 -216 58 3 57 3 -3 44 c-4 51 7 48 33 -9 l18 -40 64 0 c36 0 63 4 63 10 0 6 -23 47 -51 92 -27 45 -46 84 -42 87 12 9 93 117 93 124 0 4 -30 7 -67 7 -66 0 -69 -1 -88 -33 l-20 -32 -3 88 -3 87 -54 0 -55 0 0 -215z"/>
    <path d="M4482 2348 l3 -213 58 -3 57 -3 0 69 0 70 31 6 c17 3 49 6 71 6 33 0 47 7 78 38 69 69 60 165 -20 220 -30 20 -45 22 -157 22 l-123 0 2 -212z m216 70 c3 -27 2 -28 -47 -28 -50 0 -51 1 -51 31 0 30 1 30 48 27 43 -3 47 -5 50 -30z"/>
    <path d="M4856 2487 c1 -39 2 -136 3 -214 l1 -143 55 0 55 0 0 215 0 215 -57 0 -58 0 1 -73z"/>
    <path d="M2834 2431 c-46 -28 -51 -41 -23 -62 17 -13 34 -17 55 -13 30 6 74 -9 74 -24 0 -4 -27 -7 -59 -7 -79 0 -111 -27 -111 -92 0 -55 12 -78 50 -98 36 -19 67 -19 103 -1 15 8 27 11 27 5 0 -5 25 -9 55 -9 l55 0 0 79 c0 153 -19 206 -84 231 -43 16 -108 12 -142 -9z m95 -190 c12 -8 12 -12 2 -25 -17 -20 -35 -20 -51 -1 -23 27 15 47 49 26z"/>
    <path d="M3175 2436 c-38 -17 -60 -41 -80 -89 -20 -49 -19 -79 5 -130 34 -71 127 -107 202 -78 24 9 88 68 88 81 0 13 -106 37 -122 27 -8 -6 -27 -7 -41 -3 -24 6 -27 11 -27 46 0 33 4 42 25 52 20 9 28 8 43 -5 17 -16 23 -16 70 -2 57 17 59 28 10 71 -50 46 -112 57 -173 30z"/>
    <path d="M3730 2340 c0 -121 12 -166 51 -194 30 -20 93 -21 113 0 15 14 16 14 16 -1 0 -13 9 -15 53 -13 l52 3 3 158 3 157 -61 0 -60 0 0 -100 c0 -81 -3 -102 -15 -106 -34 -13 -45 15 -45 112 l0 94 -55 0 -55 0 0 -110z"/>
    <path d="M4050 2240 l0 -210 60 0 60 0 0 55 0 55 26 -10 c62 -24 142 29 164 108 21 75 5 128 -54 180 -39 34 -88 42 -127 22 -13 -7 -19 -7 -19 0 0 6 -24 10 -55 10 l-55 0 0 -210z m182 93 c18 -16 24 -59 10 -79 -10 -15 -40 -24 -57 -18 -19 8 -21 100 -2 107 21 9 30 7 49 -10z"/>
    <path d="M5059 2421 l-34 -31 24 -20 c15 -13 31 -18 47 -14 31 8 70 -2 77 -20 4 -10 -4 -12 -40 -8 -85 9 -143 -46 -129 -122 12 -65 81 -99 147 -73 21 8 39 11 39 6 0 -5 23 -9 50 -9 l50 0 0 116 c0 163 -20 192 -135 202 -59 4 -64 3 -96 -27z m115 -180 c9 -14 -29 -42 -48 -35 -16 6 -21 25 -9 37 9 10 51 9 57 -2z"/>
    <path d="M5322 2293 l3 -158 55 0 55 0 3 103 c3 101 3 102 27 102 24 0 24 -1 27 -102 l3 -103 58 -3 57 -3 0 127 0 126 -34 34 c-36 36 -86 45 -127 24 -13 -7 -19 -7 -19 0 0 6 -24 10 -55 10 l-56 0 3 -157z"/>
  </g>
</svg>